<?xml version="1.0" encoding="utf-8"?>
<!-- Generator: Adobe Illustrator 16.0.0, SVG Export Plug-In . SVG Version: 6.00 Build 0)  -->
<!DOCTYPE svg PUBLIC "-//W3C//DTD SVG 1.1//EN" "http://www.w3.org/Graphics/SVG/1.1/DTD/svg11.dtd">
<svg version="1.1" id="Layer_1" xmlns="http://www.w3.org/2000/svg" xmlns:xlink="http://www.w3.org/1999/xlink" x="0px" y="0px"
	 width="1200px" height="800px" viewBox="0 0 1200 800" enable-background="new 0 0 1200 800" xml:space="preserve">
<g>
	<g>
		<defs>
			<rect id="SVGID_1_" width="1200" height="800"/>
		</defs>
		<clipPath id="SVGID_2_">
			<use xlink:href="#SVGID_1_"  overflow="visible"/>
		</clipPath>
		<g clip-path="url(#SVGID_2_)">
			<polygon fill="#FFA905" points="247.051,-163.013 223.526,-122.266 200.001,-163.013 			"/>
			<polygon fill="#FFA905" points="294.102,-163.013 270.577,-122.266 247.052,-163.013 			"/>
			<polygon fill="#FFA905" points="341.153,-163.013 317.628,-122.266 294.103,-163.013 			"/>
			<polygon fill="#FFDB01" points="388.204,-163.013 364.679,-122.266 341.153,-163.013 			"/>
			<polygon fill="#FFCB03" points="435.254,-163.013 411.729,-122.266 388.205,-163.013 			"/>
			<polygon fill="#FFCB03" points="482.305,-163.013 458.78,-122.266 435.255,-163.013 			"/>
			<polygon fill="#FFA905" points="529.355,-163.013 505.831,-122.266 482.306,-163.013 			"/>
			<polygon fill="#FFDB01" points="576.406,-163.013 552.882,-122.266 529.356,-163.013 			"/>
			<polygon fill="#FFDB01" points="623.457,-163.013 599.933,-122.266 576.407,-163.013 			"/>
			<polygon fill="#FFCB03" points="670.509,-163.013 646.983,-122.266 623.458,-163.013 			"/>
			<polygon fill="#FFCB03" points="717.56,-163.013 694.034,-122.266 670.51,-163.013 			"/>
			<polygon fill="#FFDB01" points="764.61,-163.013 741.085,-122.266 717.561,-163.013 			"/>
			<polygon fill="#FFA905" points="811.661,-163.013 788.136,-122.266 764.611,-163.013 			"/>
			<polygon fill="#FFA905" points="858.711,-163.013 835.188,-122.266 811.662,-163.013 			"/>
			<polygon fill="#FFA905" points="905.763,-163.013 882.237,-122.266 858.712,-163.013 			"/>
			<polygon fill="#FFCB03" points="952.813,-163.013 929.288,-122.266 905.764,-163.013 			"/>
			<polygon fill="#FFCB03" points="999.864,-163.013 976.339,-122.266 952.814,-163.013 			"/>
			<polygon fill="#FFA905" points="176.474,-122.266 199.999,-163.013 223.523,-122.266 			"/>
			<polygon fill="#FFA905" points="223.524,-122.266 200,-81.519 176.475,-122.266 			"/>
			<polygon fill="#FFCB03" points="223.524,-122.266 247.05,-163.013 270.574,-122.266 			"/>
			<polygon fill="#FFA905" points="270.575,-122.266 247.051,-81.519 223.525,-122.266 			"/>
			<polygon fill="#FFCB03" points="270.575,-122.266 294.101,-163.013 317.626,-122.266 			"/>
			<polygon fill="#FFCB03" points="317.627,-122.266 294.102,-81.519 270.576,-122.266 			"/>
			<polygon fill="#FFCB03" points="317.627,-122.266 341.151,-163.013 364.677,-122.266 			"/>
			<polygon fill="#FFCB03" points="364.678,-122.266 341.152,-81.519 317.627,-122.266 			"/>
			<polygon fill="#FFA905" points="364.678,-122.266 388.202,-163.013 411.727,-122.266 			"/>
			<polygon fill="#FFCB03" points="411.729,-122.266 388.203,-81.519 364.679,-122.266 			"/>
			<polygon fill="#FFDB01" points="411.729,-122.266 435.253,-163.013 458.777,-122.266 			"/>
			<polygon fill="#FFCB03" points="458.778,-122.266 435.254,-81.519 411.729,-122.266 			"/>
			<polygon fill="#FFDB01" points="458.778,-122.266 482.304,-163.013 505.828,-122.266 			"/>
			<polygon fill="#FFA905" points="505.829,-122.266 482.305,-81.519 458.779,-122.266 			"/>
			<polygon fill="#FFCB03" points="505.829,-122.266 529.354,-163.013 552.879,-122.266 			"/>
			<polygon fill="#FFDB01" points="552.88,-122.266 529.355,-81.519 505.83,-122.266 			"/>
			<polygon fill="#FFCB03" points="552.88,-122.266 576.405,-163.013 599.931,-122.266 			"/>
			<polygon fill="#FFA905" points="599.931,-122.266 576.406,-81.519 552.881,-122.266 			"/>
			<polygon fill="#FFA905" points="599.931,-122.266 623.456,-163.013 646.981,-122.266 			"/>
			<polygon fill="#FFDB01" points="646.982,-122.266 623.457,-81.519 599.932,-122.266 			"/>
			<polygon fill="#FFDB01" points="646.982,-122.266 670.507,-163.013 694.032,-122.266 			"/>
			<polygon fill="#FFDB01" points="694.033,-122.266 670.508,-81.519 646.983,-122.266 			"/>
			<polygon fill="#FFCB03" points="694.033,-122.266 717.558,-163.013 741.083,-122.266 			"/>
			<polygon fill="#FFA905" points="741.084,-122.266 717.559,-81.519 694.034,-122.266 			"/>
			<polygon fill="#FFCB03" points="741.084,-122.266 764.608,-163.013 788.133,-122.266 			"/>
			<polygon fill="#FFDB01" points="788.135,-122.266 764.609,-81.519 741.085,-122.266 			"/>
			<polygon fill="#FFCB03" points="788.135,-122.266 811.659,-163.013 835.184,-122.266 			"/>
			<polygon fill="#FFCB03" points="835.186,-122.266 811.66,-81.519 788.136,-122.266 			"/>
			<polygon fill="#FFCB03" points="835.186,-122.266 858.71,-163.013 882.235,-122.266 			"/>
			<polygon fill="#FFCB03" points="882.236,-122.266 858.711,-81.519 835.186,-122.266 			"/>
			<polygon fill="#FFCB03" points="882.236,-122.266 905.761,-163.013 929.286,-122.266 			"/>
			<polygon fill="#FFCB03" points="929.287,-122.266 905.762,-81.519 882.237,-122.266 			"/>
			<polygon fill="#FFA905" points="929.287,-122.266 952.813,-163.013 976.337,-122.266 			"/>
			<polygon fill="#FFCB03" points="976.338,-122.266 952.813,-81.519 929.288,-122.266 			"/>
			<polygon fill="#FFA905" points="976.338,-122.266 999.862,-163.013 1023.388,-122.266 			"/>
			<polygon fill="#FFCB03" points="1023.389,-122.266 999.863,-81.519 976.339,-122.266 			"/>
			<polygon fill="#FFCB03" points="200,-81.604 223.525,-122.351 247.05,-81.604 			"/>
			<polygon fill="#FFA905" points="247.051,-81.604 223.526,-40.857 200.001,-81.604 			"/>
			<polygon fill="#FFCB03" points="247.051,-81.604 270.576,-122.351 294.101,-81.604 			"/>
			<polygon fill="#FFDB01" points="294.102,-81.604 270.577,-40.857 247.052,-81.604 			"/>
			<polygon fill="#FFA905" points="294.102,-81.604 317.627,-122.351 341.152,-81.604 			"/>
			<polygon fill="#FFDB01" points="341.153,-81.604 317.628,-40.857 294.103,-81.604 			"/>
			<polygon fill="#FFA905" points="341.153,-81.604 364.678,-122.351 388.203,-81.604 			"/>
			<polygon fill="#FFCB03" points="388.204,-81.604 364.679,-40.857 341.153,-81.604 			"/>
			<polygon fill="#FFA905" points="388.204,-81.604 411.729,-122.351 435.253,-81.604 			"/>
			<polygon fill="#FFDB01" points="435.254,-81.604 411.729,-40.857 388.205,-81.604 			"/>
			<polygon fill="#FFDB01" points="435.254,-81.604 458.779,-122.351 482.304,-81.604 			"/>
			<polygon fill="#FFA905" points="482.305,-81.604 458.78,-40.857 435.255,-81.604 			"/>
			<polygon fill="#FFCB03" points="482.305,-81.604 505.83,-122.351 529.354,-81.604 			"/>
			<polygon fill="#FFDB01" points="529.355,-81.604 505.831,-40.857 482.306,-81.604 			"/>
			<polygon fill="#FFCB03" points="529.355,-81.604 552.881,-122.351 576.405,-81.604 			"/>
			<polygon fill="#FFDB01" points="576.406,-81.604 552.882,-40.857 529.356,-81.604 			"/>
			<polygon opacity="0.7" fill="#FFDB01" enable-background="new    " points="576.406,-81.604 599.932,-122.351 623.457,-81.604 
							"/>
			<polygon fill="#FFA905" points="623.457,-81.604 599.933,-40.857 576.407,-81.604 			"/>
			<polygon fill="#FFA905" points="623.457,-81.604 646.982,-122.351 670.508,-81.604 			"/>
			<polygon fill="#FFCB03" points="670.509,-81.604 646.983,-40.857 623.458,-81.604 			"/>
			<polygon fill="#FFCB03" points="670.509,-81.604 694.033,-122.351 717.559,-81.604 			"/>
			<polygon fill="#FFA905" points="717.56,-81.604 694.034,-40.857 670.51,-81.604 			"/>
			<polygon opacity="0.7" fill="#FFDB01" enable-background="new    " points="717.56,-81.604 741.084,-122.351 764.609,-81.604 			
				"/>
			<polygon fill="#FFCB03" points="764.61,-81.604 741.085,-40.857 717.561,-81.604 			"/>
			<polygon fill="#FFA905" points="764.61,-81.604 788.135,-122.351 811.659,-81.604 			"/>
			<polygon fill="#FFCB03" points="811.661,-81.604 788.136,-40.857 764.611,-81.604 			"/>
			<polygon fill="#FFA905" points="811.661,-81.604 835.186,-122.351 858.71,-81.604 			"/>
			<polygon fill="#FFCB03" points="858.711,-81.604 835.188,-40.857 811.662,-81.604 			"/>
			<polygon fill="#FFA905" points="858.711,-81.604 882.236,-122.351 905.762,-81.604 			"/>
			<polygon fill="#FFCB03" points="905.763,-81.604 882.237,-40.857 858.712,-81.604 			"/>
			<polygon fill="#FFA905" points="905.763,-81.604 929.287,-122.351 952.813,-81.604 			"/>
			<polygon fill="#FFCB03" points="952.813,-81.604 929.288,-40.857 905.764,-81.604 			"/>
			<polygon fill="#FFA905" points="952.813,-81.604 976.338,-122.351 999.863,-81.604 			"/>
			<polygon fill="#FFCB03" points="999.864,-81.604 976.339,-40.857 952.814,-81.604 			"/>
			<polygon fill="#FFDB01" points="176.474,-40.857 199.999,-81.604 223.523,-40.857 			"/>
			<polygon fill="#FFCB03" points="223.524,-40.857 200,-0.11 176.475,-40.857 			"/>
			<polygon fill="#FFCB03" points="223.524,-40.857 247.05,-81.604 270.574,-40.857 			"/>
			<polygon fill="#FFDB01" points="270.575,-40.857 247.051,-0.11 223.525,-40.857 			"/>
			<polygon fill="#FFCB03" points="270.575,-40.857 294.101,-81.604 317.626,-40.857 			"/>
			<polygon fill="#FFDB01" points="317.627,-40.857 294.102,-0.11 270.576,-40.857 			"/>
			<polygon fill="#FFA905" points="317.627,-40.857 341.151,-81.604 364.677,-40.857 			"/>
			<polygon opacity="0.7" fill="#FFDB01" enable-background="new    " points="364.678,-40.857 341.152,-0.11 317.627,-40.857 			
				"/>
			<polygon fill="#FFA905" points="364.678,-40.857 388.202,-81.604 411.727,-40.857 			"/>
			<polygon fill="#FFDB01" points="411.729,-40.857 388.203,-0.11 364.679,-40.857 			"/>
			<polygon fill="#FFCB03" points="411.729,-40.857 435.253,-81.604 458.777,-40.857 			"/>
			<polygon fill="#FFA905" points="458.778,-40.857 435.254,-0.11 411.729,-40.857 			"/>
			<polygon fill="#FFCB03" points="458.778,-40.857 482.304,-81.604 505.828,-40.857 			"/>
			<polygon fill="#FFA905" points="505.829,-40.857 482.305,-0.11 458.779,-40.857 			"/>
			<polygon fill="#FFCB03" points="505.829,-40.857 529.354,-81.604 552.879,-40.857 			"/>
			<polygon fill="#FFDB01" points="552.88,-40.857 529.355,-0.11 505.83,-40.857 			"/>
			<polygon fill="#FFCB03" points="552.88,-40.857 576.405,-81.604 599.931,-40.857 			"/>
			<polygon fill="#FFDB01" points="599.931,-40.857 576.406,-0.11 552.881,-40.857 			"/>
			<polygon fill="#FFDB01" points="599.931,-40.857 623.456,-81.604 646.981,-40.857 			"/>
			<polygon fill="#FFA905" points="646.982,-40.857 623.457,-0.11 599.932,-40.857 			"/>
			<polygon opacity="0.7" fill="#FFDB01" enable-background="new    " points="646.982,-40.857 670.507,-81.604 694.032,-40.857 			
				"/>
			<polygon fill="#FFDB01" points="694.033,-40.857 670.508,-0.11 646.983,-40.857 			"/>
			<polygon fill="#FFDB01" points="694.033,-40.857 717.558,-81.604 741.083,-40.857 			"/>
			<polygon fill="#FFCB03" points="741.084,-40.857 717.559,-0.11 694.034,-40.857 			"/>
			<polygon fill="#FFDB01" points="741.084,-40.857 764.608,-81.604 788.133,-40.857 			"/>
			<polygon fill="#FFCB03" points="788.135,-40.857 764.609,-0.11 741.085,-40.857 			"/>
			<polygon fill="#FFDB01" points="788.135,-40.857 811.659,-81.604 835.184,-40.857 			"/>
			<polygon fill="#FFDB01" points="835.186,-40.857 811.66,-0.11 788.136,-40.857 			"/>
			<polygon fill="#FFA905" points="835.186,-40.857 858.71,-81.604 882.235,-40.857 			"/>
			<polygon fill="#FFDB01" points="882.236,-40.857 858.711,-0.11 835.186,-40.857 			"/>
			<polygon fill="#FFDB01" points="882.236,-40.857 905.761,-81.604 929.286,-40.857 			"/>
			<polygon fill="#FFA905" points="929.287,-40.857 905.762,-0.11 882.237,-40.857 			"/>
			<polygon fill="#FFDB01" points="929.287,-40.857 952.813,-81.604 976.337,-40.857 			"/>
			<polygon fill="#FFA905" points="976.338,-40.857 952.813,-0.11 929.288,-40.857 			"/>
			<polygon fill="#FFA905" points="976.338,-40.857 999.862,-81.604 1023.388,-40.857 			"/>
			<polygon fill="#FFA905" points="1023.389,-40.857 999.863,-0.11 976.339,-40.857 			"/>
			<polygon fill="#FFDB01" points="200,-0.133 223.525,-40.88 247.05,-0.133 			"/>
			<polygon fill="#FFCB03" points="247.051,-0.133 223.526,40.614 200.001,-0.133 			"/>
			<polygon fill="#FFCB03" points="247.051,-0.133 270.576,-40.88 294.101,-0.133 			"/>
			<polygon fill="#FFA905" points="294.102,-0.133 270.577,40.614 247.052,-0.133 			"/>
			<polygon fill="#FFA905" points="294.102,-0.133 317.627,-40.88 341.152,-0.133 			"/>
			<polygon fill="#FFCB03" points="341.153,-0.133 317.628,40.614 294.103,-0.133 			"/>
			<polygon fill="#FFCB03" points="341.153,-0.133 364.678,-40.88 388.203,-0.133 			"/>
			<polygon fill="#FFA905" points="388.204,-0.133 364.679,40.614 341.153,-0.133 			"/>
			<polygon fill="#FFCB03" points="388.204,-0.133 411.729,-40.88 435.253,-0.133 			"/>
			<polygon opacity="0.5" fill="#FFFE03" enable-background="new    " points="435.254,-0.133 411.729,40.614 388.205,-0.133 			"/>
			<polygon fill="#FFDB01" points="435.254,-0.133 458.779,-40.88 482.304,-0.133 			"/>
			<polygon fill="#FFCB03" points="482.305,-0.133 458.78,40.614 435.255,-0.133 			"/>
			<polygon opacity="0.7" fill="#FFDB01" enable-background="new    " points="482.305,-0.133 505.83,-40.88 529.354,-0.133 			"/>
			<polygon fill="#FFCB03" points="529.355,-0.133 505.831,40.614 482.306,-0.133 			"/>
			<polygon fill="#FFCB03" points="529.355,-0.133 552.881,-40.88 576.405,-0.133 			"/>
			<polygon fill="#FFA905" points="576.406,-0.133 552.882,40.614 529.356,-0.133 			"/>
			<polygon opacity="0.7" fill="#FFDB01" enable-background="new    " points="576.406,-0.133 599.932,-40.88 623.457,-0.133 			"/>
			<polygon fill="#FFDB01" points="623.457,-0.133 599.933,40.614 576.407,-0.133 			"/>
			<polygon fill="#FFCB03" points="623.457,-0.133 646.982,-40.88 670.508,-0.133 			"/>
			<polygon opacity="0.7" fill="#FFDB01" enable-background="new    " points="670.509,-0.133 646.983,40.614 623.458,-0.133 			"/>
			<polygon opacity="0.7" fill="#FFDB01" enable-background="new    " points="670.509,-0.133 694.033,-40.88 717.559,-0.133 			"/>
			<polygon fill="#FFCB03" points="717.56,-0.133 694.034,40.614 670.51,-0.133 			"/>
			<polygon fill="#FFDB01" points="717.56,-0.133 741.084,-40.88 764.609,-0.133 			"/>
			<polygon opacity="0.7" fill="#FFDB01" enable-background="new    " points="764.61,-0.133 741.085,40.614 717.561,-0.133 			"/>
			<polygon fill="#FFA905" points="764.61,-0.133 788.135,-40.88 811.659,-0.133 			"/>
			<polygon fill="#FFDB01" points="811.661,-0.133 788.136,40.614 764.611,-0.133 			"/>
			<polygon fill="#FFCB03" points="811.661,-0.133 835.186,-40.88 858.71,-0.133 			"/>
			<polygon fill="#FFA905" points="858.711,-0.133 835.188,40.614 811.662,-0.133 			"/>
			<polygon fill="#FFCB03" points="858.711,-0.133 882.236,-40.88 905.762,-0.133 			"/>
			<polygon fill="#FFA905" points="905.763,-0.133 882.237,40.614 858.712,-0.133 			"/>
			<polygon fill="#FFDB01" points="905.763,-0.133 929.287,-40.88 952.813,-0.133 			"/>
			<polygon fill="#FFCB03" points="952.813,-0.133 929.288,40.614 905.764,-0.133 			"/>
			<polygon fill="#FFDB01" points="952.813,-0.133 976.338,-40.88 999.863,-0.133 			"/>
			<polygon fill="#FFA905" points="999.864,-0.133 976.339,40.614 952.814,-0.133 			"/>
			<polygon fill="#FFDB01" points="176.474,40.614 199.999,-0.133 223.523,40.614 			"/>
			<polygon fill="#FFCB03" points="223.524,40.614 200,81.361 176.475,40.614 			"/>
			<polygon opacity="0.5" fill="#FFFE03" enable-background="new    " points="223.524,40.614 247.05,-0.133 270.574,40.614 			"/>
			<polygon fill="#FFDB01" points="270.575,40.614 247.051,81.361 223.525,40.614 			"/>
			<polygon fill="#FFDB01" points="270.575,40.614 294.101,-0.133 317.626,40.614 			"/>
			<polygon fill="#FFDB01" points="317.627,40.614 294.102,81.361 270.576,40.614 			"/>
			<polygon fill="#FFDB01" points="317.627,40.614 341.151,-0.133 364.677,40.614 			"/>
			<polygon fill="#FFCB03" points="364.678,40.614 341.152,81.361 317.627,40.614 			"/>
			<polygon fill="#FFDB01" points="364.678,40.614 388.202,-0.133 411.727,40.614 			"/>
			<polygon fill="#FFCB03" points="411.729,40.614 388.203,81.361 364.679,40.614 			"/>
			<polygon opacity="0.7" fill="#FFCB03" enable-background="new    " points="411.729,40.614 435.253,-0.133 458.777,40.614 			"/>
			<polygon fill="#FFDB01" points="458.778,40.614 435.254,81.361 411.729,40.614 			"/>
			<polygon fill="#FFDB01" points="458.778,40.614 482.304,-0.133 505.828,40.614 			"/>
			<polygon fill="#FFDB01" points="505.829,40.614 482.305,81.361 458.779,40.614 			"/>
			<polygon fill="#FFDB01" points="505.829,40.614 529.354,-0.133 552.879,40.614 			"/>
			<polygon fill="#FFCB03" points="552.88,40.614 529.355,81.361 505.83,40.614 			"/>
			<polygon opacity="0.7" fill="#FFDB01" enable-background="new    " points="552.88,40.614 576.405,-0.133 599.931,40.614 			"/>
			<polygon fill="#FFDB01" points="599.931,40.614 576.406,81.361 552.881,40.614 			"/>
			<polygon opacity="0.5" fill="#FFFE03" enable-background="new    " points="599.931,40.614 623.456,-0.133 646.981,40.614 			"/>
			<polygon fill="#FFDB01" points="646.982,40.614 623.457,81.361 599.932,40.614 			"/>
			<polygon fill="#FFA905" points="646.982,40.614 670.507,-0.133 694.032,40.614 			"/>
			<polygon fill="#FFDB01" points="694.033,40.614 670.508,81.361 646.983,40.614 			"/>
			<polygon fill="#FFDB01" points="694.033,40.614 717.558,-0.133 741.083,40.614 			"/>
			<polygon fill="#FFDB01" points="741.084,40.614 717.559,81.361 694.034,40.614 			"/>
			<polygon fill="#FFCB03" points="741.084,40.614 764.608,-0.133 788.133,40.614 			"/>
			<polygon fill="#FFDB01" points="788.135,40.614 764.609,81.361 741.085,40.614 			"/>
			<polygon fill="#FFCB03" points="788.135,40.614 811.659,-0.133 835.184,40.614 			"/>
			<polygon fill="#FFDB01" points="835.186,40.614 811.66,81.361 788.136,40.614 			"/>
			<polygon fill="#FFDB01" points="835.186,40.614 858.71,-0.133 882.235,40.614 			"/>
			<polygon fill="#FFCB03" points="882.236,40.614 858.711,81.361 835.186,40.614 			"/>
			<polygon fill="#FFDB01" points="882.236,40.614 905.761,-0.133 929.286,40.614 			"/>
			<polygon fill="#FFCB03" points="929.287,40.614 905.762,81.361 882.237,40.614 			"/>
			<polygon fill="#FFDB01" points="929.287,40.614 952.813,-0.133 976.337,40.614 			"/>
			<polygon fill="#FFDB01" points="976.338,40.614 952.813,81.361 929.288,40.614 			"/>
			<polygon fill="#FFDB01" points="976.338,40.614 999.862,-0.133 1023.388,40.614 			"/>
			<polygon fill="#FFDB01" points="1023.389,40.614 999.863,81.361 976.339,40.614 			"/>
			<polygon opacity="0.7" fill="#FFDB01" enable-background="new    " points="200,81.381 223.525,40.634 247.05,81.381 			"/>
			<polygon fill="#FFCB03" points="247.051,81.381 223.526,122.128 200.001,81.381 			"/>
			<polygon fill="#FFCB03" points="247.051,81.381 270.576,40.634 294.101,81.381 			"/>
			<polygon opacity="0.5" fill="#FFFE03" enable-background="new    " points="294.102,81.381 270.577,122.128 247.052,81.381 			
				"/>
			<polygon opacity="0.5" fill="#FFFE03" enable-background="new    " points="294.102,81.381 317.627,40.634 341.152,81.381 			"/>
			<polygon fill="#FFCB03" points="341.153,81.381 317.628,122.128 294.103,81.381 			"/>
			<polygon fill="#FFDB01" points="341.153,81.381 364.678,40.634 388.203,81.381 			"/>
			<polygon opacity="0.5" fill="#FFFE03" enable-background="new    " points="388.204,81.381 364.679,122.128 341.153,81.381 			
				"/>
			<polygon opacity="0.7" fill="#FFDB01" enable-background="new    " points="388.204,81.381 411.729,40.634 435.253,81.381 			"/>
			<polygon fill="#FFDB01" points="435.254,81.381 411.729,122.128 388.205,81.381 			"/>
			<polygon opacity="0.7" fill="#FFDB01" enable-background="new    " points="435.254,81.381 458.779,40.634 482.304,81.381 			"/>
			<polygon fill="#FFCB03" points="482.305,81.381 458.78,122.128 435.255,81.381 			"/>
			<polygon opacity="0.7" fill="#FFDB01" enable-background="new    " points="482.305,81.381 505.83,40.634 529.354,81.381 			"/>
			<polygon fill="#FFDB01" points="529.355,81.381 505.831,122.128 482.306,81.381 			"/>
			<polygon opacity="0.7" fill="#FFDB01" enable-background="new    " points="529.355,81.381 552.881,40.634 576.405,81.381 			"/>
			<polygon fill="#FFDB01" points="576.406,81.381 552.882,122.128 529.356,81.381 			"/>
			<polygon fill="#FFCB03" points="576.406,81.381 599.932,40.634 623.457,81.381 			"/>
			<polygon fill="#FFDB01" points="623.457,81.381 599.933,122.128 576.407,81.381 			"/>
			<polygon opacity="0.7" fill="#FFDB01" enable-background="new    " points="623.457,81.381 646.982,40.634 670.508,81.381 			"/>
			<polygon fill="#FFDB01" points="670.509,81.381 646.983,122.128 623.458,81.381 			"/>
			<polygon opacity="0.5" fill="#FFFE03" enable-background="new    " points="670.509,81.381 694.033,40.634 717.559,81.381 			"/>
			<polygon opacity="0.7" fill="#FFDB01" enable-background="new    " points="717.56,81.381 694.034,122.128 670.51,81.381 			"/>
			<polygon opacity="0.7" fill="#FFDB01" enable-background="new    " points="717.56,81.381 741.084,40.634 764.609,81.381 			"/>
			<polygon fill="#FFDB01" points="764.61,81.381 741.085,122.128 717.561,81.381 			"/>
			<polygon fill="#FFCB03" points="764.61,81.381 788.135,40.634 811.659,81.381 			"/>
			<polygon opacity="0.5" fill="#FFFE03" enable-background="new    " points="811.661,81.381 788.136,122.128 764.611,81.381 			
				"/>
			<polygon opacity="0.7" fill="#FFDB01" enable-background="new    " points="811.661,81.381 835.186,40.634 858.71,81.381 			"/>
			<polygon opacity="0.5" fill="#FFFE03" enable-background="new    " points="858.711,81.381 835.188,122.128 811.662,81.381 			
				"/>
			<polygon opacity="0.7" fill="#FFDB01" enable-background="new    " points="858.711,81.381 882.236,40.634 905.762,81.381 			"/>
			<polygon fill="#FFDB01" points="905.763,81.381 882.237,122.128 858.712,81.381 			"/>
			<polygon fill="#FFDB01" points="905.763,81.381 929.287,40.634 952.813,81.381 			"/>
			<polygon fill="#FFCB03" points="952.813,81.381 976.338,40.634 999.863,81.381 			"/>
			<polygon fill="#FFDB01" points="999.864,81.381 976.339,122.128 952.814,81.381 			"/>
			<polygon fill="#FFDB01" points="176.474,122.128 199.999,81.381 223.523,122.128 			"/>
			<polygon opacity="0.5" fill="#FFFE03" enable-background="new    " points="223.524,122.128 200,162.875 176.475,122.128 			"/>
			<polygon opacity="0.5" fill="#FFFE03" enable-background="new    " points="176.473,203.6 152.948,244.347 129.423,203.6 			"/>
			<polygon fill="#FFDB01" points="223.524,122.128 247.05,81.381 270.574,122.128 			"/>
			<polygon opacity="0.7" fill="#FFDB01" enable-background="new    " points="270.575,122.128 247.051,162.875 223.525,122.128 			
				"/>
			<polygon fill="#FFDB01" points="270.575,122.128 294.101,81.381 317.626,122.128 			"/>
			<polygon opacity="0.7" fill="#FFDB01" enable-background="new    " points="317.627,122.128 341.151,81.381 364.677,122.128 			
				"/>
			<polygon fill="#FFDB01" points="364.678,122.128 341.152,162.875 317.627,122.128 			"/>
			<polygon opacity="0.2" fill="#FFFE03" enable-background="new    " points="364.678,122.128 388.202,81.381 411.727,122.128 			
				"/>
			<polygon fill="#FFDB01" points="411.729,122.128 388.203,162.875 364.679,122.128 			"/>
			<polygon opacity="0.5" fill="#FFFE03" enable-background="new    " points="411.729,122.128 435.253,81.381 458.777,122.128 			
				"/>
			<polygon fill="#FFDB01" points="458.778,122.128 435.254,162.875 411.729,122.128 			"/>
			<polygon opacity="0.5" fill="#FFFE03" enable-background="new    " points="458.778,122.128 482.304,81.381 505.828,122.128 			
				"/>
			<polygon fill="#FFDB01" points="505.829,122.128 482.305,162.875 458.779,122.128 			"/>
			<polygon opacity="0.7" fill="#FFDB01" enable-background="new    " points="505.829,122.128 529.354,81.381 552.879,122.128 			
				"/>
			<polygon fill="#FFDB01" points="552.88,122.128 529.355,162.875 505.83,122.128 			"/>
			<polygon fill="#FFCB03" points="552.88,122.128 576.405,81.381 599.931,122.128 			"/>
			<polygon fill="#FFDB01" points="599.931,122.128 576.406,162.875 552.881,122.128 			"/>
			<polygon opacity="0.7" fill="#FFDB01" enable-background="new    " points="599.931,122.128 623.456,81.381 646.981,122.128 			
				"/>
			<polygon fill="#FFDB01" points="646.982,122.128 623.457,162.875 599.932,122.128 			"/>
			<polygon fill="#FFDB01" points="646.982,122.128 670.507,81.381 694.032,122.128 			"/>
			<polygon opacity="0.7" fill="#FFDB01" enable-background="new    " points="694.033,122.128 670.508,162.875 646.983,122.128 			
				"/>
			<polygon opacity="0.5" fill="#FFFE03" enable-background="new    " points="694.033,122.128 717.558,81.381 741.083,122.128 			
				"/>
			<polygon opacity="0.7" fill="#FFDB01" enable-background="new    " points="741.084,122.128 717.559,162.875 694.034,122.128 			
				"/>
			<polygon opacity="0.7" fill="#FFDB01" enable-background="new    " points="741.084,122.128 764.608,81.381 788.133,122.128 			
				"/>
			<polygon fill="#FFCB03" points="788.135,122.128 764.609,162.875 741.085,122.128 			"/>
			<polygon fill="#FFDB01" points="788.135,122.128 811.659,81.381 835.184,122.128 			"/>
			<polygon opacity="0.5" fill="#FFFE03" enable-background="new    " points="835.186,122.128 811.66,162.875 788.136,122.128 			
				"/>
			<polygon opacity="0.7" fill="#FFDB01" enable-background="new    " points="835.186,122.128 858.71,81.381 882.235,122.128 			
				"/>
			<polygon fill="#FFDB01" points="882.236,122.128 858.711,162.875 835.186,122.128 			"/>
			<polygon opacity="0.5" fill="#FFFE03" enable-background="new    " points="882.236,122.128 905.761,81.381 929.286,122.128 			
				"/>
			<polygon fill="#FFDB01" points="929.287,122.128 905.762,162.875 882.237,122.128 			"/>
			<polygon opacity="0.7" fill="#FFDB01" enable-background="new    " points="929.287,122.128 952.813,81.381 976.337,122.128 			
				"/>
			<polygon fill="#FFDB01" points="976.338,122.128 952.813,162.875 929.288,122.128 			"/>
			<polygon opacity="0.5" fill="#FFFE03" enable-background="new    " points="976.338,122.128 999.862,81.381 1023.388,122.128 			
				"/>
			<polygon opacity="0.7" fill="#FFDB01" enable-background="new    " points="1023.389,122.128 999.863,162.875 976.339,122.128 
							"/>
			<polygon fill="#FFDB01" points="247.051,162.853 223.526,203.6 200.001,162.853 			"/>
			<polygon opacity="0.5" fill="#FFFE03" enable-background="new    " points="247.051,162.853 270.576,122.105 294.101,162.853 			
				"/>
			<polygon opacity="0.2" fill="#FFFE03" enable-background="new    " points="294.102,162.853 270.577,203.6 247.052,162.853 			
				"/>
			<polygon opacity="0.2" fill="#FFFE03" enable-background="new    " points="294.102,162.853 317.627,122.105 341.152,162.853 			
				"/>
			<polygon fill="#FFDB01" points="341.153,162.853 317.628,203.6 294.103,162.853 			"/>
			<polygon opacity="0.5" fill="#FFFE03" enable-background="new    " points="341.153,162.853 364.678,122.105 388.203,162.853 			
				"/>
			<polygon fill="#FFDB01" points="388.204,162.853 364.679,203.6 341.153,162.853 			"/>
			<polygon opacity="0.7" fill="#FFDB01" enable-background="new    " points="388.204,162.853 411.729,122.105 435.253,162.853 			
				"/>
			<polygon fill="#FFDB01" points="435.254,162.853 411.729,203.6 388.205,162.853 			"/>
			<polygon opacity="0.7" fill="#FFDB01" enable-background="new    " points="435.254,162.853 458.779,122.105 482.304,162.853 			
				"/>
			<polygon opacity="0.5" fill="#FFFE03" enable-background="new    " points="482.305,162.853 458.78,203.6 435.255,162.853 			"/>
			<polygon opacity="0.7" fill="#FFDB01" enable-background="new    " points="482.305,162.853 505.83,122.105 529.354,162.853 			
				"/>
			<polygon opacity="0.5" fill="#FFFE03" enable-background="new    " points="529.355,162.853 505.831,203.6 482.306,162.853 			
				"/>
			<polygon opacity="0.7" fill="#FFDB01" enable-background="new    " points="529.355,162.853 552.881,122.105 576.405,162.853 			
				"/>
			<polygon fill="#FFDB01" points="576.406,162.853 552.882,203.6 529.356,162.853 			"/>
			<polygon fill="#FFCB03" points="576.406,162.853 599.932,122.105 623.457,162.853 			"/>
			<polygon fill="#FFDB01" points="623.457,162.853 599.933,203.6 576.407,162.853 			"/>
			<polygon opacity="0.5" fill="#FFFE03" enable-background="new    " points="623.457,162.853 646.982,122.105 670.508,162.853 			
				"/>
			<polygon fill="#FFDB01" points="670.509,162.853 646.983,203.6 623.458,162.853 			"/>
			<polygon fill="#FFDB01" points="670.509,162.853 694.033,122.105 717.559,162.853 			"/>
			<polygon fill="#FFDB01" points="717.56,162.853 694.034,203.6 670.51,162.853 			"/>
			<polygon fill="#FFDB01" points="717.56,162.853 741.084,122.105 764.609,162.853 			"/>
			<polygon fill="#FFDB01" points="764.61,162.853 741.085,203.6 717.561,162.853 			"/>
			<polygon fill="#FFDB01" points="764.61,162.853 788.135,122.105 811.659,162.853 			"/>
			<polygon fill="#FFDB01" points="811.661,162.853 788.136,203.6 764.611,162.853 			"/>
			<polygon opacity="0.7" fill="#FFDB01" enable-background="new    " points="811.661,162.853 835.186,122.105 858.71,162.853 			
				"/>
			<polygon opacity="0.7" fill="#FFDB01" enable-background="new    " points="858.711,162.853 835.188,203.6 811.662,162.853 			
				"/>
			<polygon opacity="0.5" fill="#FFFE03" enable-background="new    " points="858.711,162.853 882.236,122.105 905.762,162.853 			
				"/>
			<polygon opacity="0.7" fill="#FFDB01" enable-background="new    " points="905.763,162.853 929.287,122.105 952.813,162.853 			
				"/>
			<polygon fill="#FFDB01" points="952.813,162.853 929.288,203.6 905.764,162.853 			"/>
			<polygon opacity="0.5" fill="#FFFE03" enable-background="new    " points="952.813,162.853 976.338,122.105 999.863,162.853 			
				"/>
			<polygon opacity="0.7" fill="#FFDB01" enable-background="new    " points="176.474,203.6 199.999,162.853 223.523,203.6 			"/>
			<polygon opacity="0.7" fill="#FFDB01" enable-background="new    " points="223.524,203.6 200,244.347 176.475,203.6 			"/>
			<polygon fill="#FFDB01" points="270.575,203.6 247.051,244.347 223.525,203.6 			"/>
			<polygon fill="#FFDB01" points="317.627,203.6 294.102,244.347 270.576,203.6 			"/>
			<polygon opacity="0.7" fill="#FFDB01" enable-background="new    " points="317.627,203.6 341.151,162.853 364.677,203.6 			"/>
			<polygon fill="#FFDB01" points="364.678,203.6 341.152,244.347 317.627,203.6 			"/>
			<polygon opacity="0.7" fill="#FFDB01" enable-background="new    " points="364.678,203.6 388.202,162.853 411.727,203.6 			"/>
			<polygon fill="#FFDB01" points="411.729,203.6 388.203,244.347 364.679,203.6 			"/>
			<polygon opacity="0.7" fill="#FFDB01" enable-background="new    " points="411.729,203.6 435.253,162.853 458.777,203.6 			"/>
			<polygon fill="#FFDB01" points="458.778,203.6 435.254,244.347 411.729,203.6 			"/>
			<polygon fill="#FFCB03" points="458.778,203.6 482.304,162.853 505.828,203.6 			"/>
			<polygon fill="#FFDB01" points="505.829,203.6 482.305,244.347 458.779,203.6 			"/>
			<polygon opacity="0.7" fill="#FFDB01" enable-background="new    " points="505.829,203.6 529.354,162.853 552.879,203.6 			"/>
			<polygon opacity="0.5" fill="#FFFE03" enable-background="new    " points="552.88,203.6 529.355,244.347 505.83,203.6 			"/>
			<polygon opacity="0.5" fill="#FFFE03" enable-background="new    " points="552.88,203.6 576.405,162.853 599.931,203.6 			"/>
			<polygon fill="#FFDB01" points="599.931,203.6 576.406,244.347 552.881,203.6 			"/>
			<polygon opacity="0.7" fill="#FFDB01" enable-background="new    " points="599.931,203.6 623.456,162.853 646.981,203.6 			"/>
			<polygon fill="#FFDB01" points="646.982,203.6 623.457,244.347 599.932,203.6 			"/>
			<polygon fill="#FFCB03" points="646.982,203.6 670.507,162.853 694.032,203.6 			"/>
			<polygon opacity="0.7" fill="#FFDB01" enable-background="new    " points="694.033,203.6 670.508,244.347 646.983,203.6 			"/>
			<polygon opacity="0.7" fill="#FFDB01" enable-background="new    " points="694.033,203.6 717.558,162.853 741.083,203.6 			"/>
			<polygon fill="#FFCB03" points="741.084,203.6 717.559,244.347 694.034,203.6 			"/>
			<polygon opacity="0.7" fill="#FFDB01" enable-background="new    " points="741.084,203.6 764.608,162.853 788.133,203.6 			"/>
			<polygon fill="#FFDB01" points="788.135,203.6 764.609,244.347 741.085,203.6 			"/>
			<polygon fill="#FFDB01" points="835.186,203.6 811.66,244.347 788.136,203.6 			"/>
			<polygon fill="#FFDB01" points="835.186,203.6 858.71,162.853 882.235,203.6 			"/>
			<polygon opacity="0.5" fill="#FFFE03" enable-background="new    " points="882.236,203.6 858.711,244.347 835.186,203.6 			"/>
			<polygon opacity="0.7" fill="#FFDB01" enable-background="new    " points="882.236,203.6 905.761,162.853 929.286,203.6 			"/>
			<polygon opacity="0.2" fill="#FFFE03" enable-background="new    " points="929.287,203.6 905.762,244.347 882.237,203.6 			"/>
			<polygon opacity="0.5" fill="#FFFE03" enable-background="new    " points="929.287,203.6 952.813,162.853 976.337,203.6 			"/>
			<polygon fill="#FFDB01" points="976.338,203.6 999.862,162.853 1023.388,203.6 			"/>
			<polygon opacity="0.7" fill="#FFDB01" enable-background="new    " points="294.102,244.329 317.627,203.582 341.152,244.329 			
				"/>
			<polygon opacity="0.5" fill="#FFFE03" enable-background="new    " points="388.204,244.329 364.679,285.076 341.153,244.329 			
				"/>
			<polygon opacity="0.7" fill="#FFDB01" enable-background="new    " points="388.204,244.329 411.729,203.582 435.253,244.329 			
				"/>
			<polygon fill="#FFA905" points="11.797,-163.013 -11.728,-122.266 -35.253,-163.013 			"/>
			<polygon fill="#FFA905" points="58.849,-163.013 35.323,-122.266 11.798,-163.013 			"/>
			<polygon fill="#FFDB01" points="105.899,-163.013 82.374,-122.266 58.849,-163.013 			"/>
			<polygon fill="#FFCB03" points="152.949,-163.013 129.425,-122.266 105.9,-163.013 			"/>
			<polygon fill="#FFCB03" points="-11.729,-122.266 11.796,-163.013 35.321,-122.266 			"/>
			<polygon fill="#FFCB03" points="35.322,-122.266 11.797,-81.519 -11.729,-122.266 			"/>
			<polygon fill="#FFCB03" points="35.322,-122.266 58.847,-163.013 82.372,-122.266 			"/>
			<polygon fill="#FFCB03" points="82.373,-122.266 58.848,-81.519 35.322,-122.266 			"/>
			<polygon fill="#FFA905" points="82.373,-122.266 105.897,-163.013 129.422,-122.266 			"/>
			<polygon fill="#FFCB03" points="129.423,-122.266 105.898,-81.519 82.374,-122.266 			"/>
			<polygon fill="#FFDB01" points="129.423,-122.266 152.948,-163.013 176.473,-122.266 			"/>
			<polygon fill="#FFCB03" points="176.474,-122.266 152.949,-81.519 129.424,-122.266 			"/>
			<polygon fill="#FFCB03" points="-35.254,-81.604 -11.729,-122.351 11.796,-81.604 			"/>
			<polygon fill="#FFDB01" points="11.797,-81.604 -11.728,-40.857 -35.253,-81.604 			"/>
			<polygon fill="#FFA905" points="11.797,-81.604 35.322,-122.351 58.848,-81.604 			"/>
			<polygon fill="#FFDB01" points="58.849,-81.604 35.323,-40.857 11.798,-81.604 			"/>
			<polygon fill="#FFA905" points="58.849,-81.604 82.373,-122.351 105.898,-81.604 			"/>
			<polygon fill="#FFCB03" points="105.899,-81.604 82.374,-40.857 58.849,-81.604 			"/>
			<polygon fill="#FFA905" points="105.899,-81.604 129.424,-122.351 152.948,-81.604 			"/>
			<polygon fill="#FFDB01" points="152.949,-81.604 129.425,-40.857 105.9,-81.604 			"/>
			<polygon fill="#FFCB03" points="-11.729,-40.857 11.796,-81.604 35.321,-40.857 			"/>
			<polygon fill="#FFDB01" points="35.322,-40.857 11.797,-0.11 -11.729,-40.857 			"/>
			<polygon fill="#FFA905" points="35.322,-40.857 58.847,-81.604 82.372,-40.857 			"/>
			<polygon opacity="0.7" fill="#FFDB01" enable-background="new    " points="82.373,-40.857 58.848,-0.11 35.322,-40.857 			"/>
			<polygon fill="#FFA905" points="82.373,-40.857 105.897,-81.604 129.422,-40.857 			"/>
			<polygon fill="#FFDB01" points="129.423,-40.857 105.898,-0.11 82.374,-40.857 			"/>
			<polygon fill="#FFCB03" points="129.423,-40.857 152.948,-81.604 176.473,-40.857 			"/>
			<polygon fill="#FFA905" points="176.474,-40.857 152.949,-0.11 129.424,-40.857 			"/>
			<polygon fill="#FFCB03" points="-35.254,-0.133 -11.729,-40.88 11.796,-0.133 			"/>
			<polygon fill="#FFA905" points="11.797,-0.133 -11.728,40.614 -35.253,-0.133 			"/>
			<polygon fill="#FFA905" points="11.797,-0.133 35.322,-40.88 58.848,-0.133 			"/>
			<polygon fill="#FFCB03" points="58.849,-0.133 35.323,40.614 11.798,-0.133 			"/>
			<polygon fill="#FFCB03" points="58.849,-0.133 82.373,-40.88 105.898,-0.133 			"/>
			<polygon fill="#FFA905" points="105.899,-0.133 82.374,40.614 58.849,-0.133 			"/>
			<polygon fill="#FFCB03" points="105.899,-0.133 129.424,-40.88 152.948,-0.133 			"/>
			<polygon opacity="0.5" fill="#FFFE03" enable-background="new    " points="152.949,-0.133 129.425,40.614 105.9,-0.133 			"/>
			<polygon fill="#FFDB01" points="-11.729,40.614 11.796,-0.133 35.321,40.614 			"/>
			<polygon fill="#FFDB01" points="35.322,40.614 11.797,81.361 -11.729,40.614 			"/>
			<polygon fill="#FFDB01" points="35.322,40.614 58.847,-0.133 82.372,40.614 			"/>
			<polygon fill="#FFCB03" points="82.373,40.614 58.848,81.361 35.322,40.614 			"/>
			<polygon fill="#FFDB01" points="82.373,40.614 105.897,-0.133 129.422,40.614 			"/>
			<polygon fill="#FFCB03" points="129.423,40.614 105.898,81.361 82.374,40.614 			"/>
			<polygon opacity="0.7" fill="#FFCB03" enable-background="new    " points="129.423,40.614 152.948,-0.133 176.473,40.614 			"/>
			<polygon fill="#FFDB01" points="176.474,40.614 152.949,81.361 129.424,40.614 			"/>
			<polygon fill="#FFCB03" points="-35.254,81.381 -11.729,40.634 11.796,81.381 			"/>
			<polygon opacity="0.5" fill="#FFFE03" enable-background="new    " points="11.797,81.381 -11.728,122.128 -35.253,81.381 			"/>
			<polygon opacity="0.5" fill="#FFFE03" enable-background="new    " points="11.797,81.381 35.322,40.634 58.848,81.381 			"/>
			<polygon fill="#FFCB03" points="58.849,81.381 35.323,122.128 11.798,81.381 			"/>
			<polygon fill="#FFDB01" points="58.849,81.381 82.373,40.634 105.898,81.381 			"/>
			<polygon opacity="0.5" fill="#FFFE03" enable-background="new    " points="105.899,81.381 82.374,122.128 58.849,81.381 			"/>
			<polygon opacity="0.7" fill="#FFDB01" enable-background="new    " points="105.899,81.381 129.424,40.634 152.948,81.381 			"/>
			<polygon opacity="0.7" fill="#FFDB01" enable-background="new    " points="152.95,81.381 176.475,40.634 199.999,81.381 			"/>
			<polygon fill="#FFDB01" points="152.949,81.381 129.425,122.128 105.9,81.381 			"/>
			<polygon fill="#FFDB01" points="-11.729,122.128 11.796,81.381 35.321,122.128 			"/>
			<polygon opacity="0.7" fill="#FFDB01" enable-background="new    " points="35.322,122.128 58.847,81.381 82.372,122.128 			"/>
			<polygon fill="#FFDB01" points="82.374,122.105 58.849,162.853 35.323,122.105 			"/>
			<polygon opacity="0.2" fill="#FFFE03" enable-background="new    " points="82.373,122.128 105.897,81.381 129.422,122.128 			
				"/>
			<polygon opacity="0.5" fill="#FFFE03" enable-background="new    " points="129.423,122.128 152.948,81.381 176.473,122.128 			
				"/>
			<polygon fill="#FFDB01" points="176.474,122.128 152.949,162.875 129.424,122.128 			"/>
			<polygon opacity="0.5" fill="#FFFE03" enable-background="new    " points="-35.254,162.853 -11.729,122.105 11.796,162.853 			
				"/>
			<polygon opacity="0.2" fill="#FFFE03" enable-background="new    " points="11.797,162.853 -11.728,203.6 -35.253,162.853 			"/>
			<polygon opacity="0.2" fill="#FFFE03" enable-background="new    " points="11.797,162.853 35.322,122.105 58.848,162.853 			"/>
			<polygon opacity="0.5" fill="#FFFE03" enable-background="new    " points="58.849,162.853 82.373,122.105 105.898,162.853 			
				"/>
			<polygon fill="#FFDB01" points="105.899,162.853 82.374,203.6 58.849,162.853 			"/>
			<polygon opacity="0.7" fill="#FFDB01" enable-background="new    " points="105.899,162.853 129.424,122.105 152.948,162.853 			
				"/>
			<polygon opacity="0.7" fill="#FFDB01" enable-background="new    " points="152.95,162.853 176.475,122.105 199.999,162.853 			
				"/>
			<polygon fill="#FFDB01" points="152.949,162.853 129.425,203.6 105.9,162.853 			"/>
			<polygon fill="#FFDB01" points="35.322,203.6 11.797,244.347 -11.729,203.6 			"/>
			<polygon opacity="0.7" fill="#FFDB01" enable-background="new    " points="129.423,203.6 152.948,162.853 176.473,203.6 			"/>
			<polygon opacity="0.7" fill="#FFDB01" enable-background="new    " points="105.899,244.329 129.425,203.582 152.949,244.329 			
				"/>
			<polygon opacity="0.2" fill="#FFFE03" enable-background="new    " points="435.254,244.329 411.729,285.076 388.205,244.329 			
				"/>
			<polygon opacity="0.5" fill="#FFFE03" enable-background="new    " points="435.254,244.329 458.779,203.582 482.304,244.329 			
				"/>
			<polygon opacity="0.7" fill="#FFDB01" enable-background="new    " points="482.305,244.329 458.78,285.076 435.255,244.329 			
				"/>
			<polygon opacity="0.7" fill="#FFDB01" enable-background="new    " points="482.305,244.329 505.83,203.582 529.354,244.329 			
				"/>
			<polygon opacity="0.7" fill="#FFDB01" enable-background="new    " points="529.355,244.329 505.831,285.076 482.306,244.329 			
				"/>
			<polygon opacity="0.7" fill="#FFDB01" enable-background="new    " points="529.355,244.329 552.881,203.582 576.405,244.329 			
				"/>
			<polygon opacity="0.7" fill="#FFDB01" enable-background="new    " points="576.406,244.329 552.882,285.076 529.356,244.329 			
				"/>
			<polygon opacity="0.5" fill="#FFFE03" enable-background="new    " points="576.406,244.329 599.932,203.582 623.457,244.329 			
				"/>
			<polygon opacity="0.7" fill="#FFDB01" enable-background="new    " points="623.457,244.329 599.933,285.076 576.407,244.329 			
				"/>
			<polygon opacity="0.5" fill="#FFFE03" enable-background="new    " points="623.457,244.329 646.982,203.582 670.508,244.329 			
				"/>
			<polygon opacity="0.2" fill="#FFFE03" enable-background="new    " points="670.509,244.329 646.983,285.076 623.458,244.329 			
				"/>
			<polygon fill="#FFDB01" points="670.509,244.329 694.033,203.582 717.559,244.329 			"/>
			<polygon opacity="0.7" fill="#FFDB01" enable-background="new    " points="717.56,244.329 694.034,285.076 670.51,244.329 			
				"/>
			<polygon fill="#FFDB01" points="717.56,244.329 741.084,203.582 764.609,244.329 			"/>
			<polygon opacity="0.7" fill="#FFDB01" enable-background="new    " points="764.61,244.329 741.085,285.076 717.561,244.329 			
				"/>
			<polygon opacity="0.5" fill="#FFFE03" enable-background="new    " points="764.61,244.329 788.135,203.582 811.659,244.329 			
				"/>
			<polygon fill="#FFDB01" points="811.661,244.329 835.186,203.582 858.71,244.329 			"/>
			<polygon opacity="0.7" fill="#FFDB01" enable-background="new    " points="858.711,244.329 835.188,285.076 811.662,244.329 			
				"/>
			<polygon fill="#FFDB01" points="858.711,244.329 882.236,203.582 905.762,244.329 			"/>
			<polygon fill="#FFDB01" points="905.763,244.329 929.287,203.582 952.813,244.329 			"/>
			<polygon opacity="0.2" fill="#FFFE03" enable-background="new    " points="952.813,244.329 929.288,285.076 905.764,244.329 			
				"/>
			<polygon fill="#FFDB01" points="952.813,244.329 976.338,203.582 999.863,244.329 			"/>
			<polygon opacity="0.7" fill="#FFDB01" enable-background="new    " points="999.864,244.329 976.339,285.076 952.814,244.329 			
				"/>
			<polygon opacity="0.7" fill="#FFDB01" enable-background="new    " points="270.575,285.076 294.101,244.329 317.626,285.076 			
				"/>
			<polygon opacity="0.2" fill="#FFFE03" enable-background="new    " points="317.627,285.076 294.102,325.823 270.576,285.076 			
				"/>
			<polygon opacity="0.7" fill="#FFDB01" enable-background="new    " points="317.627,285.076 341.151,244.329 364.677,285.076 			
				"/>
			<polygon opacity="0.5" fill="#FFFE03" enable-background="new    " points="364.678,285.076 341.152,325.823 317.627,285.076 			
				"/>
			<polygon opacity="0.7" fill="#FFDB01" enable-background="new    " points="364.678,285.076 388.202,244.329 411.727,285.076 			
				"/>
			<polygon opacity="0.5" fill="#FFFE03" enable-background="new    " points="411.729,285.076 435.253,244.329 458.777,285.076 			
				"/>
			<polygon opacity="0.7" fill="#FFDB01" enable-background="new    " points="458.778,285.076 435.254,325.823 411.729,285.076 			
				"/>
			<polygon opacity="0.5" fill="#FFFE03" enable-background="new    " points="458.778,285.076 482.304,244.329 505.828,285.076 			
				"/>
			<polygon opacity="0.5" fill="#FFFE03" enable-background="new    " points="505.829,285.076 482.305,325.823 458.779,285.076 			
				"/>
			<polygon opacity="0.2" fill="#FFFE03" enable-background="new    " points="505.829,285.076 529.354,244.329 552.879,285.076 			
				"/>
			<polygon opacity="0.7" fill="#FFDB01" enable-background="new    " points="552.88,285.076 529.355,325.823 505.83,285.076 			
				"/>
			<polygon fill="#FFDB01" points="552.88,285.076 576.405,244.329 599.931,285.076 			"/>
			<polygon opacity="0.7" fill="#FFDB01" enable-background="new    " points="599.931,285.076 576.406,325.823 552.881,285.076 			
				"/>
			<polygon opacity="0.7" fill="#FFDB01" enable-background="new    " points="599.931,285.076 623.456,244.329 646.981,285.076 			
				"/>
			<polygon opacity="0.7" fill="#FFDB01" enable-background="new    " points="646.982,285.076 623.457,325.823 599.932,285.076 			
				"/>
			<polygon opacity="0.7" fill="#FFDB01" enable-background="new    " points="646.982,285.076 670.507,244.329 694.032,285.076 			
				"/>
			<polygon opacity="0.2" fill="#FFFE03" enable-background="new    " points="694.033,285.076 670.508,325.823 646.983,285.076 			
				"/>
			<polygon opacity="0.5" fill="#FFFE03" enable-background="new    " points="694.033,285.076 717.558,244.329 741.083,285.076 			
				"/>
			<polygon opacity="0.7" fill="#FFDB01" enable-background="new    " points="741.084,285.076 764.608,244.329 788.133,285.076 			
				"/>
			<polygon opacity="0.5" fill="#FFFE03" enable-background="new    " points="788.135,285.076 764.609,325.823 741.085,285.076 			
				"/>
			<polygon opacity="0.7" fill="#FFDB01" enable-background="new    " points="835.186,285.076 811.66,325.823 788.136,285.076 			
				"/>
			<polygon opacity="0.5" fill="#FFFE03" enable-background="new    " points="835.186,285.076 858.71,244.329 882.235,285.076 			
				"/>
			<polygon opacity="0.7" fill="#FFDB01" enable-background="new    " points="882.236,285.076 858.711,325.823 835.186,285.076 			
				"/>
			<polygon opacity="0.7" fill="#FFDB01" enable-background="new    " points="882.236,285.076 905.761,244.329 929.286,285.076 			
				"/>
			<polygon fill="#FFDB01" points="1046.915,-163.013 1023.39,-122.266 999.865,-163.013 			"/>
			<polygon fill="#FFA905" points="1093.966,-163.013 1070.439,-122.266 1046.916,-163.013 			"/>
			<polygon fill="#FFA905" points="1141.016,-163.013 1117.491,-122.266 1093.967,-163.013 			"/>
			<polygon fill="#FFA905" points="1188.067,-163.013 1164.542,-122.266 1141.017,-163.013 			"/>
			<polygon fill="#FFCB03" points="1235.118,-163.013 1211.593,-122.266 1188.068,-163.013 			"/>
			<polygon fill="#FFCB03" points="1023.389,-122.266 1046.913,-163.013 1070.438,-122.266 			"/>
			<polygon fill="#FFDB01" points="1070.439,-122.266 1046.914,-81.519 1023.39,-122.266 			"/>
			<polygon fill="#FFCB03" points="1070.439,-122.266 1093.964,-163.013 1117.488,-122.266 			"/>
			<polygon fill="#FFCB03" points="1117.489,-122.266 1093.965,-81.519 1070.439,-122.266 			"/>
			<polygon fill="#FFCB03" points="1117.489,-122.266 1141.015,-163.013 1164.54,-122.266 			"/>
			<polygon fill="#FFCB03" points="1164.541,-122.266 1141.016,-81.519 1117.49,-122.266 			"/>
			<polygon fill="#FFCB03" points="1164.541,-122.266 1188.064,-163.013 1211.591,-122.266 			"/>
			<polygon fill="#FFCB03" points="1211.592,-122.266 1188.066,-81.519 1164.542,-122.266 			"/>
			<polygon opacity="0.7" fill="#FFDB01" enable-background="new    " points="999.864,-81.604 1023.389,-122.351 1046.914,-81.604 
							"/>
			<polygon fill="#FFCB03" points="1046.915,-81.604 1023.39,-40.857 999.865,-81.604 			"/>
			<polygon fill="#FFA905" points="1046.915,-81.604 1070.439,-122.351 1093.964,-81.604 			"/>
			<polygon fill="#FFCB03" points="1093.966,-81.604 1070.439,-40.857 1046.916,-81.604 			"/>
			<polygon fill="#FFA905" points="1093.966,-81.604 1117.49,-122.351 1141.015,-81.604 			"/>
			<polygon fill="#FFCB03" points="1141.016,-81.604 1117.491,-40.857 1093.967,-81.604 			"/>
			<polygon fill="#FFA905" points="1141.016,-81.604 1164.541,-122.351 1188.066,-81.604 			"/>
			<polygon fill="#FFCB03" points="1188.067,-81.604 1164.542,-40.857 1141.017,-81.604 			"/>
			<polygon fill="#FFA905" points="1188.067,-81.604 1211.592,-122.351 1235.117,-81.604 			"/>
			<polygon fill="#FFCB03" points="1235.118,-81.604 1211.593,-40.857 1188.068,-81.604 			"/>
			<polygon fill="#FFDB01" points="1023.389,-40.857 1046.913,-81.604 1070.438,-40.857 			"/>
			<polygon fill="#FFCB03" points="1070.439,-40.857 1046.914,-0.11 1023.39,-40.857 			"/>
			<polygon fill="#FFDB01" points="1070.439,-40.857 1093.964,-81.604 1117.488,-40.857 			"/>
			<polygon fill="#FFDB01" points="1117.489,-40.857 1093.965,-0.11 1070.439,-40.857 			"/>
			<polygon fill="#FFA905" points="1117.489,-40.857 1141.015,-81.604 1164.54,-40.857 			"/>
			<polygon fill="#FFDB01" points="1164.541,-40.857 1141.016,-0.11 1117.49,-40.857 			"/>
			<polygon fill="#FFDB01" points="1164.541,-40.857 1188.064,-81.604 1211.591,-40.857 			"/>
			<polygon fill="#FFA905" points="1211.592,-40.857 1188.066,-0.11 1164.542,-40.857 			"/>
			<polygon fill="#FFDB01" points="999.864,-0.133 1023.389,-40.88 1046.914,-0.133 			"/>
			<polygon opacity="0.7" fill="#FFDB01" enable-background="new    " points="1046.915,-0.133 1023.39,40.614 999.865,-0.133 			
				"/>
			<polygon fill="#FFA905" points="1046.915,-0.133 1070.439,-40.88 1093.964,-0.133 			"/>
			<polygon fill="#FFDB01" points="1093.966,-0.133 1070.439,40.614 1046.916,-0.133 			"/>
			<polygon fill="#FFCB03" points="1093.966,-0.133 1117.49,-40.88 1141.015,-0.133 			"/>
			<polygon fill="#FFA905" points="1141.016,-0.133 1117.491,40.614 1093.967,-0.133 			"/>
			<polygon fill="#FFCB03" points="1141.016,-0.133 1164.541,-40.88 1188.066,-0.133 			"/>
			<polygon fill="#FFA905" points="1188.067,-0.133 1164.542,40.614 1141.017,-0.133 			"/>
			<polygon fill="#FFDB01" points="1188.067,-0.133 1211.592,-40.88 1235.117,-0.133 			"/>
			<polygon fill="#FFCB03" points="1235.118,-0.133 1211.593,40.614 1188.068,-0.133 			"/>
			<polygon fill="#FFCB03" points="1023.389,40.614 1046.913,-0.133 1070.438,40.614 			"/>
			<polygon fill="#FFDB01" points="1070.439,40.614 1046.914,81.361 1023.39,40.614 			"/>
			<polygon fill="#FFCB03" points="1070.439,40.614 1093.964,-0.133 1117.488,40.614 			"/>
			<polygon fill="#FFDB01" points="1117.489,40.614 1093.965,81.361 1070.439,40.614 			"/>
			<polygon fill="#FFDB01" points="1117.489,40.614 1141.015,-0.133 1164.54,40.614 			"/>
			<polygon fill="#FFCB03" points="1164.541,40.614 1141.016,81.361 1117.49,40.614 			"/>
			<polygon fill="#FFDB01" points="1164.541,40.614 1188.064,-0.133 1211.591,40.614 			"/>
			<polygon fill="#FFCB03" points="1211.592,40.614 1188.066,81.361 1164.542,40.614 			"/>
			<polygon opacity="0.7" fill="#FFDB01" enable-background="new    " points="999.864,81.381 1023.389,40.634 1046.914,81.381 			
				"/>
			<polygon fill="#FFDB01" points="1046.915,81.381 1023.39,122.128 999.865,81.381 			"/>
			<polygon fill="#FFCB03" points="1046.915,81.381 1070.439,40.634 1093.964,81.381 			"/>
			<polygon fill="#FFA905" points="1093.966,81.381 1070.439,122.128 1046.916,81.381 			"/>
			<polygon opacity="0.7" fill="#FFDB01" enable-background="new    " points="1093.966,81.381 1117.49,40.634 1141.015,81.381 			
				"/>
			<polygon opacity="0.5" fill="#FFFE03" enable-background="new    " points="1141.016,81.381 1117.491,122.128 1093.967,81.381 
							"/>
			<polygon opacity="0.7" fill="#FFDB01" enable-background="new    " points="1141.016,81.381 1164.541,40.634 1188.066,81.381 			
				"/>
			<polygon fill="#FFDB01" points="1188.067,81.381 1164.542,122.128 1141.017,81.381 			"/>
			<polygon fill="#FFDB01" points="1188.067,81.381 1211.592,40.634 1235.117,81.381 			"/>
			<polygon opacity="0.7" fill="#FFDB01" enable-background="new    " points="1023.389,122.128 1046.913,81.381 1070.438,122.128 
							"/>
			<polygon fill="#FFCB03" points="1070.439,122.128 1046.914,162.875 1023.39,122.128 			"/>
			<polygon fill="#FFDB01" points="1070.439,122.128 1093.964,81.381 1117.488,122.128 			"/>
			<polygon opacity="0.5" fill="#FFFE03" enable-background="new    " points="1117.489,122.128 1093.965,162.875 1070.439,122.128 
							"/>
			<polygon opacity="0.7" fill="#FFDB01" enable-background="new    " points="1117.489,122.128 1141.015,81.381 1164.54,122.128 
							"/>
			<polygon fill="#FFDB01" points="1164.541,122.128 1141.016,162.875 1117.49,122.128 			"/>
			<polygon opacity="0.5" fill="#FFFE03" enable-background="new    " points="1164.541,122.128 1188.064,81.381 1211.591,122.128 
							"/>
			<polygon fill="#FFDB01" points="1211.592,122.128 1188.066,162.875 1164.542,122.128 			"/>
			<polygon fill="#FFDB01" points="999.864,162.853 1023.389,122.105 1046.914,162.853 			"/>
			<polygon opacity="0.5" fill="#FFFE03" enable-background="new    " points="1046.915,162.853 1023.39,203.6 999.865,162.853 			
				"/>
			<polygon fill="#FFDB01" points="1046.915,162.853 1070.439,122.105 1093.964,162.853 			"/>
			<polygon opacity="0.5" fill="#FFFE03" enable-background="new    " points="1093.966,162.853 1070.439,203.6 1046.916,162.853 
							"/>
			<polygon fill="#FFA905" points="1093.966,162.853 1117.49,122.105 1141.015,162.853 			"/>
			<polygon opacity="0.7" fill="#FFDB01" enable-background="new    " points="1141.016,162.853 1117.491,203.6 1093.967,162.853 
							"/>
			<polygon opacity="0.5" fill="#FFFE03" enable-background="new    " points="1141.016,162.853 1164.541,122.105 1188.066,162.853 
							"/>
			<polygon opacity="0.7" fill="#FFDB01" enable-background="new    " points="1188.067,162.853 1211.592,122.105 1235.117,162.853 
							"/>
			<polygon fill="#FFDB01" points="1235.118,162.853 1211.593,203.6 1188.068,162.853 			"/>
			<polygon opacity="0.7" fill="#FFDB01" enable-background="new    " points="1023.389,203.6 1046.913,162.853 1070.438,203.6 			
				"/>
			<polygon fill="#FFDB01" points="1117.489,203.6 1093.965,244.347 1070.439,203.6 			"/>
			<polygon fill="#FFDB01" points="1117.489,203.6 1141.015,162.853 1164.54,203.6 			"/>
			<polygon opacity="0.5" fill="#FFFE03" enable-background="new    " points="1164.541,203.6 1141.016,244.347 1117.49,203.6 			
				"/>
			<polygon opacity="0.7" fill="#FFDB01" enable-background="new    " points="1164.541,203.6 1188.064,162.853 1211.591,203.6 			
				"/>
			<polygon opacity="0.2" fill="#FFFE03" enable-background="new    " points="1211.592,203.6 1188.066,244.347 1164.542,203.6 			
				"/>
			<polygon fill="#FFDB01" points="999.864,244.329 1023.389,203.582 1046.914,244.329 			"/>
			<polygon opacity="0.5" fill="#FFFE03" enable-background="new    " points="1046.915,244.329 1070.439,203.582 1093.964,244.329 
							"/>
			<polygon opacity="0.7" fill="#FFDB01" enable-background="new    " points="1141.016,244.329 1117.491,285.076 1093.967,244.329 
							"/>
			<polygon opacity="0.7" fill="#FFDB01" enable-background="new    " points="1023.389,285.076 1046.913,244.329 1070.438,285.076 
							"/>
			<polygon opacity="0.5" fill="#FFFE03" enable-background="new    " points="929.287,285.076 905.762,325.823 882.237,285.076 			
				"/>
			<polygon opacity="0.7" fill="#FFDB01" enable-background="new    " points="976.338,285.076 952.813,325.823 929.288,285.076 			
				"/>
			<polygon opacity="0.2" fill="#FFFE03" enable-background="new    " points="341.153,325.842 364.678,285.095 388.203,325.842 			
				"/>
			<polygon opacity="0.7" fill="#FFDB01" enable-background="new    " points="388.204,325.842 411.729,285.095 435.253,325.842 			
				"/>
			<polygon opacity="0.2" fill="#FFFE03" enable-background="new    " points="435.254,325.842 458.779,285.095 482.304,325.842 			
				"/>
			<polygon opacity="0.7" fill="#FFDB01" enable-background="new    " points="482.305,325.842 458.78,366.588 435.255,325.842 			
				"/>
			<polygon opacity="0.5" fill="#FFFE03" enable-background="new    " points="529.355,325.842 505.831,366.588 482.306,325.842 			
				"/>
			<polygon opacity="0.2" fill="#FFFE03" enable-background="new    " points="529.355,325.842 552.881,285.095 576.405,325.842 			
				"/>
			<polygon opacity="0.5" fill="#FFFE03" enable-background="new    " points="576.406,325.842 552.882,366.588 529.356,325.842 			
				"/>
			<polygon opacity="0.2" fill="#FFFE03" enable-background="new    " points="576.406,325.842 599.932,285.095 623.457,325.842 			
				"/>
			<polygon opacity="0.5" fill="#FFFE03" enable-background="new    " points="623.457,325.842 599.933,366.588 576.407,325.842 			
				"/>
			<polygon opacity="0.5" fill="#FFFE03" enable-background="new    " points="623.457,325.842 646.982,285.095 670.508,325.842 			
				"/>
			<polygon opacity="0.2" fill="#FFFE03" enable-background="new    " points="670.509,325.842 646.983,366.588 623.458,325.842 			
				"/>
			<polygon opacity="0.7" fill="#FFDB01" enable-background="new    " points="670.509,325.842 694.033,285.095 717.559,325.842 			
				"/>
			<polygon opacity="0.2" fill="#FFFE03" enable-background="new    " points="717.56,325.842 741.084,285.095 764.609,325.842 			
				"/>
			<polygon opacity="0.7" fill="#FFDB01" enable-background="new    " points="764.61,325.842 741.085,366.588 717.561,325.842 			
				"/>
			<polygon opacity="0.5" fill="#FFFE03" enable-background="new    " points="811.661,325.842 788.136,366.588 764.611,325.842 			
				"/>
			<polygon opacity="0.2" fill="#FFFE03" enable-background="new    " points="811.661,325.842 835.186,285.095 858.71,325.842 			
				"/>
			<polygon opacity="0.7" fill="#FFDB01" enable-background="new    " points="317.627,366.588 341.151,325.842 364.677,366.588 			
				"/>
			<polygon opacity="0.7" fill="#FFDB01" enable-background="new    " points="364.678,366.588 388.202,325.842 411.727,366.588 			
				"/>
			<polygon opacity="0.5" fill="#FFFE03" enable-background="new    " points="411.729,366.588 435.253,325.842 458.777,366.588 			
				"/>
			<polygon opacity="0.2" fill="#FFFE03" enable-background="new    " points="458.778,366.588 482.304,325.842 505.828,366.588 			
				"/>
			<polygon opacity="0.2" fill="#FFFE03" enable-background="new    " points="552.88,366.588 529.355,407.336 505.83,366.588 			
				"/>
			<polygon opacity="0.2" fill="#FFFE03" enable-background="new    " points="552.88,366.588 576.405,325.842 599.931,366.588 			
				"/>
			<polygon opacity="0.2" fill="#FFFE03" enable-background="new    " points="599.931,366.588 623.456,325.842 646.981,366.588 			
				"/>
			<polygon opacity="0.5" fill="#FFFE03" enable-background="new    " points="646.982,366.588 623.457,407.336 599.932,366.588 			
				"/>
			<polygon opacity="0.5" fill="#FFFE03" enable-background="new    " points="646.982,366.588 670.507,325.842 694.032,366.588 			
				"/>
			<polygon opacity="0.7" fill="#FFDB01" enable-background="new    " points="694.033,366.588 670.508,407.336 646.983,366.588 			
				"/>
			<polygon opacity="0.2" fill="#FFFE03" enable-background="new    " points="694.033,366.588 717.558,325.842 741.083,366.588 			
				"/>
			<polygon opacity="0.7" fill="#FFDB01" enable-background="new    " points="741.084,366.588 717.559,407.336 694.034,366.588 			
				"/>
			<polygon opacity="0.5" fill="#FFFE03" enable-background="new    " points="788.135,366.588 764.609,407.336 741.085,366.588 			
				"/>
			<polygon opacity="0.2" fill="#FFFE03" enable-background="new    " points="835.186,366.588 811.66,407.336 788.136,366.588 			
				"/>
			<polygon opacity="0.5" fill="#FFFE03" enable-background="new    " points="835.186,366.588 858.71,325.842 882.235,366.588 			
				"/>
			<polygon opacity="0.7" fill="#FFDB01" enable-background="new    " points="435.254,407.365 411.729,448.111 388.205,407.365 			
				"/>
			<polygon opacity="0.5" fill="#FFFE03" enable-background="new    " points="435.254,407.365 458.779,366.618 482.304,407.365 			
				"/>
			<polygon opacity="0.5" fill="#FFFE03" enable-background="new    " points="482.305,407.365 505.83,366.618 529.354,407.365 			
				"/>
			<polygon opacity="0.2" fill="#FFFE03" enable-background="new    " points="529.355,407.365 505.831,448.111 482.306,407.365 			
				"/>
			<polygon opacity="0.5" fill="#FFFE03" enable-background="new    " points="529.355,407.365 552.881,366.618 576.405,407.365 			
				"/>
			<polygon opacity="0.2" fill="#FFFE03" enable-background="new    " points="576.406,407.365 599.932,366.618 623.457,407.365 			
				"/>
			<polygon opacity="0.5" fill="#FFFE03" enable-background="new    " points="670.509,407.365 646.983,448.111 623.458,407.365 			
				"/>
			<polygon opacity="0.5" fill="#FFFE03" enable-background="new    " points="670.509,407.365 694.033,366.618 717.559,407.365 			
				"/>
			<polygon opacity="0.5" fill="#FFFE03" enable-background="new    " points="717.56,407.365 694.034,448.111 670.51,407.365 			
				"/>
			<polygon opacity="0.5" fill="#FFFE03" enable-background="new    " points="552.88,448.111 529.355,488.859 505.83,448.111 			
				"/>
			<polygon opacity="0.5" fill="#FFFE03" enable-background="new    " points="552.88,448.111 576.405,407.365 599.931,448.111 			
				"/>
			<polygon opacity="0.2" fill="#FFFE03" enable-background="new    " points="599.931,448.111 576.406,488.859 552.881,448.111 			
				"/>
			<polygon opacity="0.2" fill="#FFFE03" enable-background="new    " points="599.931,448.111 623.456,407.365 646.981,448.111 			
				"/>
			<polygon opacity="0.5" fill="#FFFE03" enable-background="new    " points="694.033,448.111 670.508,488.859 646.983,448.111 			
				"/>
			<polygon opacity="0.2" fill="#FFFE03" enable-background="new    " points="788.135,448.111 764.609,488.859 741.085,448.111 			
				"/>
		</g>
	</g>
</g>
</svg>
